<svg xmlns="http://www.w3.org/2000/svg" viewBox="0 0 338.63 338.63"><defs><style>.a{fill:#5b2c98;}.b{fill:#fff;}</style></defs><title>ppl-circle-</title><circle class="a" cx="169.31" cy="169.31" r="150"/><path class="b" d="M146.9,135.45a32.24,32.24,0,0,0-6.06-10.22,29,29,0,0,0-9.22-6.9A26.69,26.69,0,0,0,120,115.78a24.92,24.92,0,0,0-12.61,3.14,25.46,25.46,0,0,0-8.91,8.63v-10.7H84.55v87.61h15.93V168.21a23.17,23.17,0,0,0,8.56,8.85,24.5,24.5,0,0,0,12.83,3.27,24.16,24.16,0,0,0,10.94-2.5,26.31,26.31,0,0,0,8.62-6.89,32.55,32.55,0,0,0,5.65-10.34,39.2,39.2,0,0,0,2-12.72A35.4,35.4,0,0,0,146.9,135.45Zm-30.12,32.69c-10.09,0-18.28-8.7-18.28-19.43a20.19,20.19,0,0,1,2-8.77v-.15a14,14,0,0,1,2.43-4.16,19.11,19.11,0,0,1,3.63-3.33,16.49,16.49,0,0,1,4.4-2.2,15.12,15.12,0,0,1,4.63-.77h.07c.37,0,.76,0,1.14,0,10.1,0,18.28,8.7,18.28,19.42S126.88,168.14,116.78,168.14Z"/><path class="b" d="M222.27,135.45a32.24,32.24,0,0,0-6.06-10.22,29,29,0,0,0-9.22-6.9,26.69,26.69,0,0,0-11.64-2.55,24.92,24.92,0,0,0-12.61,3.14,25.54,25.54,0,0,0-8.91,8.63v-10.7H159.92v87.61h15.93V168.21a23.24,23.24,0,0,0,8.56,8.85,24.52,24.52,0,0,0,12.84,3.27,24.22,24.22,0,0,0,10.94-2.5,26.27,26.27,0,0,0,8.61-6.89,32.55,32.55,0,0,0,5.65-10.34,39.47,39.47,0,0,0,2-12.72A35.4,35.4,0,0,0,222.27,135.45Zm-31.6,32.69c-10.09,0-18.28-8.7-18.28-19.43s8.19-19.42,18.28-19.42a18,18,0,0,1,2.09.13h.09a15.77,15.77,0,0,1,4.93,1.32,17.08,17.08,0,0,1,4.51,3l.37.34A19.86,19.86,0,0,1,209,148.71C209,159.44,200.76,168.14,190.67,168.14Z"/><path class="b" d="M263.94,164.76a20.11,20.11,0,0,1-3.27,1.18,11.85,11.85,0,0,1-3.16.48,6,6,0,0,1-4.75-1.9,7.84,7.84,0,0,1-1.66-5.35V92.36H235.17v72.4q0,7.37,4.1,11.35t11.59,4a41.31,41.31,0,0,0,7.73-.83,30.52,30.52,0,0,0,7.49-2.38Z"/><path class="b" d="M208,229.74c-15.45,8.56-32.81,12.13-49.22,12.13S125,238.3,109.54,229.74l-5.24,12.84c16.41,10,33.53,15.69,54.45,15.69s38.05-5.71,54.45-15.69Z"/></svg>